/* XPM */
static char *result[] = {
/* columns rows colors chars-per-pixel */
"64 64 192 2 ",
"   c black",
".  c #0C0D0D",
"X  c #161313",
"o  c #1E1C1C",
"O  c #191615",
"+  c #201A1A",
"@  c #2A1C1E",
"#  c #1F211F",
"$  c #1F1F20",
"%  c #211F20",
"&  c #2C1F21",
"*  c #331E20",
"=  c #381F22",
"-  c #1F2020",
";  c #252323",
":  c #2A2324",
">  c #2C2926",
",  c #2D2B29",
"<  c #292728",
"1  c #332426",
"2  c #3D2225",
"3  c #312C27",
"4  c #372528",
"5  c #3A2628",
"6  c #332C2B",
"7  c #3B2C2B",
"8  c #392826",
"9  c #35312D",
"0  c #3B342D",
"q  c #3F2E30",
"w  c #353333",
"e  c #3B3632",
"r  c #3D3935",
"t  c #3B3638",
"y  c #501A1A",
"u  c #432A27",
"i  c #41262A",
"p  c #44292C",
"a  c #4C2A2E",
"s  c #46262A",
"d  c #502B2F",
"f  c #4A342D",
"g  c #42382E",
"h  c #47312E",
"j  c #51372D",
"k  c #54392E",
"l  c #422E31",
"z  c #4B2E31",
"x  c #562C32",
"c  c #5E2E34",
"v  c #433233",
"b  c #4A3134",
"n  c #433B35",
"m  c #4C3B31",
"M  c #443E3A",
"N  c #4A3A39",
"B  c #513337",
"V  c #5E3236",
"C  c #533539",
"Z  c #5C363B",
"A  c #5D393C",
"S  c #573C35",
"D  c #602E34",
"F  c #603137",
"G  c #61353B",
"H  c #63393E",
"J  c #4A4034",
"K  c #45403E",
"L  c #4B423B",
"P  c #534334",
"I  c #5C4434",
"U  c #5E4938",
"Y  c #56473B",
"T  c #634635",
"R  c #634E3B",
"E  c #694A39",
"W  c #6B543D",
"Q  c #71583F",
"!  c #4A3E43",
"~  c #663C42",
"^  c #6C3D43",
"/  c #4B4342",
"(  c #4F4A49",
")  c #554A41",
"_  c #524B4A",
"`  c #574A47",
"'  c #5E5146",
"]  c #5C4F53",
"[  c #5B5353",
"{  c #6A454C",
"}  c #674448",
"|  c #774D4D",
" . c #64554A",
".. c #67584B",
"X. c #6B5B4E",
"o. c #65514A",
"O. c #745C42",
"+. c #7A5E43",
"@. c #705D48",
"#. c #6D4C53",
"$. c #634A50",
"%. c #645953",
"&. c #6E5E50",
"*. c #6B5B5D",
"=. c #705E52",
"-. c #71525A",
";. c #74585F",
":. c #7E6044",
">. c #7C664E",
",. c #77624B",
"<. c #6F635B",
"1. c #736152",
"2. c #7A6757",
"3. c #73675F",
"4. c #7C6858",
"5. c #7E615D",
"6. c #6D5D61",
"7. c #755B62",
"8. c #6A6260",
"9. c #736265",
"0. c #766961",
"q. c #796B65",
"w. c #7D646C",
"e. c #746B69",
"r. c #7B6B6C",
"t. c #7E716D",
"y. c #7F7573",
"u. c #805D5A",
"i. c #836446",
"p. c #87684A",
"a. c #8B6A49",
"s. c #886848",
"d. c #926E4C",
"f. c #96714D",
"g. c #98734E",
"h. c #9C784F",
"j. c #846C52",
"k. c #846E5D",
"l. c #87705E",
"z. c #88725F",
"x. c #977754",
"c. c #856B6B",
"v. c #8C7562",
"b. c #85716B",
"n. c #907764",
"m. c #927965",
"M. c #967C68",
"N. c #997E69",
"B. c #836C72",
"V. c #896E74",
"C. c #837273",
"Z. c #8A7A76",
"A. c #8C757B",
"S. c #867B78",
"D. c #90767C",
"F. c #947A79",
"G. c #9D826C",
"H. c #9D8077",
"J. c #968379",
"K. c #9D8379",
"L. c #9F8B7F",
"P. c #938276",
"I. c #A18260",
"U. c #A1856E",
"Y. c #A48770",
"T. c #A68971",
"R. c #AC8E75",
"E. c #AF9076",
"W. c #B09177",
"Q. c #B19278",
"!. c #957D83",
"~. c #958683",
"^. c #A48E82",
"/. c #A28E8A",
"(. c #A2918E",
"). c #AD9689",
"_. c #AA9487",
"`. c #B39C8D",
"'. c #A29491",
"]. c #AC9793",
"[. c #B39D98",
"{. c #B8A29D",
"}. c #B6A5A2",
"|. c #BBAAA7",
" X c #BCAAA7",
".X c #C6B4B0",
"XX c #CAB7B3",
"oX c #D3BFBB",
"OX c #D6C2BE",
"+X c #D8C3BF",
"@X c #DBC6C2",
"#X c None",
/* pixels */
"y y y y y y y y y y y y y y y y y y y y y y y y y y y y y y y y y y y y y y y y y y   y y y y y y y y y y y y y y y y y y y y y ",
"y y y y y y y y y y y y y y y y y y y y y y y y y y y y y y y y y y y y y y y y y 6 / y y y y y y y y y y y y y y y y y y y y y ",
"y y y y y y y y y y y y y y y y y y y y y y y y y y y y y y y y y y y y y y y O X %.{.y X O y y y y y y y y y y y y y y y y y y ",
"y y y y y y y y y y y y y y y y y y y y y y y y y y y y y y y y y y y y     3 ~./.].P.X b.(.y y y y y y y y y y y y y y y y y y ",
"y y y y y y y y y y y y - - ; - ; y y y y y y y y y y y y y y y y y y y   e Z.{.{.Z.[ q.].q.  y y y y y y y y y y y y y y y y y ",
"y y y y y y y y y y y y 4 5 4 4 5 : y y y y y y y y y y y y y y y y y y . K C.r.t.` w r.r./ . y y y y y y y y y y y y y y y y y ",
"y y y y y y y y ; ; ; > x c V c c 5 % % 3 3 3 3 3 3 > % ; : : : : ; : : : : : : : % ; 3 6 3 3 3 , > y y y y y y y y y y y y y y ",
"y y y y y y y ; < ; ; : x c c c c 5 $ > +.s.s.s.s.a.W : a x x x x x x x x V x x x 5 9 i.s.s.a.s.a.U ; y y y y y y y y y y y y y ",
"y y y y y y ; > b C l ; x c c c c 4 6 W d.g.g.f.g.W m a x D c D F c D c D c c c D u 0 d.f.g.f.f.g.i.R ; y y y y y y y y y y y y ",
"y y y y y < < l ~ Z 7 : x D c c c 4 g d.a.d.f.f.g.P : c F c c c c c c c c c c c D 5 0 d.g.f.d.a.f.f.i.> y y y y y y y y y y y y ",
"y y y y y ; q ~ H 4 o ; x c c D c 8 g d.+.p.d.d.a.S 8 c D c c c c c c c c c c c D u 7 i.d.g.a.O.a.f.i.> y y y y y y y y y y y y ",
"y y y y y ; q ~ & l z : x c c c c 4 g d.d.d.g.d.g p x c c c c c c c D c c c D c c V a 3 :.g.f.d.f.f.i.: y y y y y y y y y y y y ",
"y y y y y ; q ~ z A B : x c c D c 8 g d.f.g.i.m p x D c c c c c c c c D c c c c c D x a m W g.f.f.f.i.> y y y y y y y y y y y y ",
"y y y y y ; q ~ ^ ^ B : x D c c c 4 g d.f.i.U 4 B D c c c c c D c D c c c c D c c c c c 5 m +.f.f.f.i.> y y y y y y y y y y y y ",
"y y y y ; < l ^ ^ ^ B : x D c c c 4 g f.a.P 8 c c c c c c D c c c c D V c c c c c c c c D a 0 i.a.a.+.; y y y y y y y y y y y y ",
"y y y y > b ~ ^ ^ ^ B : x c D c V 4 g a.g p x c c c D c c c c c c c c c c D c c c c D c c x a 6 9 3 3 ; y y y y y y y y y y y y ",
"y y y y ; C ~ p a a 2 & 4 8 4 8 4 : 3 m p x D c c c D c D D x 5 x c D D c c c c c c c c c D c p u N ! ; y y y y y y y y y y y y ",
"y y y y ; z C j j j p 1 n J J J J , % 1 x F c c c c c c a a z L z z x c c c c c c c D c c c c D H } ` ; y y y y y y y y y y y y ",
"y y y y * = G h.g.f.W 3 x.I.I.I.I.Y : c c c c c c c c x 6 ; N G.e ; 6 x c x c c c D c c c D D F -.( % % y y y y y y y y y y y y ",
"y y y y ; R d.h.h.E 8 ; 9 0 e e 0 > 1 V c c D c c c x 6 k.Y n G.e ' 4.1 : a c c c c c c c ~ 7.B.!.] % #Xy y y y y y y y y y y y ",
"y y y y > Q a.T T u @ ; 5 i i i i : 1 V c c c c p 5 4 > N. .n U.e =.m.: ' Y i c c c D c c { w.!.!.$.$ #Xy y y y y y y y y y y y ",
"y y y y ; R E u i i 1 : x c c D c 8 1 x F c D x : 6 e > m. .n U.e X.n.6 n...1 x c c c c c ~ 7.!.!.6.t #Xy y y y y y y y y y y y ",
"y y y y ; = a H ^ ~ B : x D c c c 8 1 c c c c c : &.k., N. .n G.e &.n., n.X.& c c c c c c c ^ !.!.!.w., y y y y y y y y y y y y ",
"y y y y ; B H } ^ ^ B : x c c c c 5 1 c D c D x : 1.v.6 m. .n U.e X.n.6 v.%.1 c c c D c c ~ 7.w.!.!.B., y y y y y y y y y y y y ",
"y y y y > B A p ~ ^ B : x D c D c 4 1 c D c c c : 1.v., M. .n U.e &.m., m.X.: c c c c c c ~ { { w.V.7.< y y y y y y y y y y y y ",
"y y y y ; C z o A ^ B & x c c c c 5 1 c c c c x : =.v.3 M. .n U.e X.m., z.X.1 x c c c D c c c c { 7.$.< y y y y y y y y y y y y ",
"y y y y ; C z + ~ ^ B : x c c c c 4 1 x c c c c : &.v., M. .n U.n 1.n., m...: c c c c c c c c D V V x ; y y y y y y y y y y y y ",
"y y y y > C a + A ^ b : x c D c c 5 1 V c c c x & &.v., m. .n T.m.U.n.> m...: x D D c c c c c c c c x ; y y y y y y y y y y y y ",
"y y y y > C Z p ~ ^ b > x c c c c 5 1 c c c D c : &.N.=.Y.v.2.R.Q.Q.G.X.U...& c p i p c D c c c c D x ; y y y y y y y y y y y y ",
"y y y y ; C ^ ^ ^ ^ B : x c c D c 4 1 c c c D x : &.Q.R.N.m.M.m.m.m.G.E.W...: d e , 1 x c c c c c D x ; y y y y y y y y y y y y ",
"y y y y ; C ^ ^ ~ ^ B : x c c c V 5 1 c c V c c : &.Q.Y.N , , , , > N T.W. .+ > v. .1 x c c c D c c x % y y y y y y y y y y y y ",
"y y y y > C } H 1 x C : x D c c c 8 1 x c c c x : &.Q.R.v.v.z.l.9 # n R.W...# ; v.&.& c c c c c c c x : y y y y y y y y y y y y ",
"y y y y < C ^ ~ u Z C : x c c c c 4 4 V c c c c : &.Q.Q.Q.v.&.X., o 9 X.U...>  .G.X.: x D D c c c D x ; y y y y y y y y y y y y ",
"y y y y ; C ^ ^ ^ ^ b : x c c D c 4 1 x c c c c : &.E.R.E.1.0 e e e 9 ; m.1.Y R.W.X.: c c c c c D c x ; y y y y y y y y y y y y ",
"y y y y : C ^ ^ ^ ^ B : x D c c c 5 1 c c c D x : &.Q.E.R.R.T.U.G.Y.l., v.R.Y.E.E.X.: c D c c D c c x ; y y y y y y y y y y y y ",
"y y y y < C ^ ^ ^ ^ B : x c c c V 4 1 c D c F x : =.Q.R.E.R.W.R. .L r < v.E.E.R. .7 : x c c c c c c x & y y y y y y y y y y y y ",
"y y y y > B ^ ^ ^ ^ B : x D D c c 4 1 c c c D c : L v.R.E.v.1.=., e ` ' G.R.R.E.N ; i c c c c c c c x ; y y y y y y y y y y y y ",
"y y y y ; C ^ ^ ^ ~ z ; a x x x x 4 1 c c c c x 1 % n R.W.=.9 9 9 2.W.E.E.E.R.m.r 5 c c c F G c c c x ; y y y y y y y y y y y y ",
"y y y y ; B ^ ^ ^ a 1 + ; : : : : ; 1 x D c c c x 4 N T.E.T.U.U.U.T.E.R.E.E.v.9 ; 2 D c D } -.V c D x & y y y y y y y y y y y y ",
"y y y y > C Z s i E U , ,.j.j.j.p.n 1 V c c c D F 5 > ) U.Q.Q.Q.W.W.E.R. .L r - i x c c c { 7.-.H c x ; y y y y y y y y y y y y ",
"y y y y ; l z = k s.Q , ,.>.>.>.>.n : s c F D c c a : ; X.4.2.2.4.4.4.1.6 ; 4 8 x D F ~ F } 7.w.~ u i ; y y y y y y y y y y y y ",
"y y y y ; 4 8 a a.g.W # : % : : : ; ; 3 d x D c c D x : : ; : : : : ; : : p c c c c H 7.~ #.w.B.M > > % y y y y y y y y y y y y ",
"y y y y > W d.d.g.T 1 & d x x x x 4 0 :.7 p D c c c c x x x x x x x x x x c c c c c H 7.7.w.r.w O.p.O.: y y y y y y y y y y y y ",
"y y y y > Q s.k k C p : x u 2 D V 4 g d.Q m i c c c D c c c D c D c c F c c c D { ~ H 7.V.6./ W a.f.i.> y y y y y y y y y y y y ",
"y y y y ; T I * s A B : x * @ c c 4 g d.g.W g a x c c c c c c c D c D c c V c D -.#.{ B.7.` I f.f.f.i.> y y y y y y y y y y y y ",
"y y y y * = = i ~ ^ B : x @ @ c c 8 g d.f.f.Q : x c c c c D c c c c c c c c c V -.7.w.A.t P g.a.f.f.:.> y y y y y y y y y y y y ",
"y y y y * B G H ~ ^ B : x * @ c c 4 g d.+.a.Q : x c c c c c c c c D c c D c c D -.B.!.A.t P f.+.a.g.i.> y y y y y y y y y y y y ",
"y y y y : V ^ H 5 V B : x a a D c 4 n a.p.d.s.R p z F c D c D D c c c c c c G #.7.V.B.( o.Q d.s.d.f.i.> $ y y y y y y y y y y y ",
"y y y y < C ^ A o z B ; p z a a a : g d.g.g.g.d.P h a c c c c D D D c c c x ~ 7.w.A.r.> +.g.f.f.f.p.R > ( ( y y y y y y y y y y ",
"y y y y ; C ^ ~ o z B ; ; & ; & : % g p.a.s.a.a.a.P 1 x x x x x x x x x x x ~ -.w.A.7.> Q a.a.a.a.U ; > '.~.w w y y y y y y y y ",
"y y y y : C ^ A + z B & z x x x x 1 ; 3 3 3 3 6 3 > % : : & : : : : : : : : > , w w , ; 3 3 6 3 3 h a > '.XX|.}.[ y y y y y y y ",
"y y y y < C ^ H + z B : x D D x c x p 5 i s p i i p p p p p i i p l i i i i i u 2 4 i i i i p i u { ;.6 (.@X@XXX[ y y y y y y y ",
"y y y y : v A ~ 4 B B : x x z z z z V | | Z a a a a z a a a z z x a B | | | | | | | | | | ~ a a a o.q., '.OXOXOXy.K - y y y y y ",
"y y y y ; ; q ^ ~ ^ b : x 2 : 6 9 6 ` ).).%.> % ; < 6 , , 6 , ; % ; N _.)._.^.^.^.^.^.^._.0., , , , ; < '.OXOX.X XP.- y y y y y ",
"y y y y y ; q ^ ^ ^ B : x 4 M J.J.J.L.`.`.^.0.; o e.}.}.}.}.~.; # [ ^.).`.3.t r r t r M J._.J.K.K.%.; < '.@X|.( K K y y y y y y ",
"y y y y y ; 3 b ^ ^ B : x z A u.%.P.`.`.`.`.^.1., S.@X@X@X'.[ < %.K.`.`.`.P.3.3.3.0.0.q.^.`.`.[.`.J.%., [ e.<.y y s y y y y y y ",
"y y y y y ; ; < B ~ C 4 z z x x 1 *.Y.F.Y.!.K.F.v 9.}.@XOXe.% 6 b.Y.F.Y.F.Y.F.T.K.K.F.Y.F.Y.F.Y.K.K.b.< - - - y y y y y y y y y ",
"y y y y y < ; ; > B ~ ~ 1 $ 4 x x c V V F F F F c 6 ( .XOXr.& c V V V V G F c ~ V c G F D Z Z c V V x ; y y y y y y y y y y y y ",
"y y y y y y y y ; > 6 4 < ; : : 1 : : 1 1 : : : < ; , (  Xr.% & : 1 : : < & & < : 1 1 : 1 : 1 : : 1 < ; y y y y y y y y y y y y ",
"y y y y y y y y y y y y y y y y y y y y y y y y y y - - 6.y y y y y y y y y y y y y y y y y y y y y y y y y y y y y y y y y y y ",
"y y y y y y y y y y y y y y y y y y y y y y y y y y y % % y y y y y y y y y y y y y y y y y y y y y y y y y y y y y y y y y y y ",
"y y y y y y y y y y y y y y y y y y y y y y y y y y y y y y y y y y y y y y y y y y y y y y y y y y y y y y y y y y y y y y y y ",
"y y y y y y y y y y y y y y y y y y y y y y y y y y y y y y y y y y y y y y y y y y y y y y y y y y y y y y y y y y y y y y y y ",
"y y y y y y y y y y y y y y y y y y y y y y y y y y y y y y y y y y y y y y y y y y y y y y y y y y y y y y y y y y y y y y y y "
};
