/* XPM */
static char *result[] = {
/* columns rows colors chars-per-pixel */
"64 64 196 2 ",
"   c #040303",
".  c #060707",
"X  c #060709",
"o  c #0C0D0C",
"O  c #120E0C",
"+  c #1A0D08",
"@  c #0A0F14",
"#  c #081218",
"$  c #0C151B",
"%  c #131314",
"&  c #17171C",
"*  c #1B1B1C",
"=  c #24140C",
"-  c #2A170E",
";  c #241B1B",
":  c #351D12",
">  c #2B221E",
",  c #392419",
"<  c #0D1B25",
"1  c #131B24",
"2  c #1C1C23",
"3  c #161E2A",
"4  c #191F29",
"5  c #1D2125",
"6  c #16202D",
"7  c #132532",
"8  c #192432",
"9  c #152936",
"0  c #1D2A3B",
"q  c #242425",
"w  c #2B2522",
"e  c #24252B",
"r  c #2B2B2B",
"t  c #332A25",
"y  c #3A2827",
"u  c #3A2D25",
"i  c #3C3129",
"p  c #252B35",
"a  c #333233",
"s  c #3A3636",
"d  c #3C3B3A",
"f  c #451F18",
"g  c #501A1A",
"h  c #47261A",
"j  c #4C2B1B",
"k  c #522E1C",
"l  c #57301D",
"z  c #5B321E",
"x  c #492622",
"c  c #4E2B24",
"v  c #512720",
"b  c #49362C",
"n  c #583929",
"m  c #463A35",
"M  c #553F32",
"N  c #622C22",
"B  c #623722",
"V  c #683424",
"C  c #6C3C25",
"Z  c #713F26",
"A  c #72362B",
"S  c #7E392C",
"D  c #4A403A",
"F  c #5B4132",
"G  c #55453B",
"H  c #59443B",
"J  c #5B493D",
"K  c #764127",
"L  c #764228",
"P  c #7C462B",
"I  c #64483A",
"U  c #72483C",
"Y  c #1A3344",
"T  c #1D394D",
"R  c #1F3E54",
"E  c #212F41",
"W  c #243346",
"Q  c #263548",
"!  c #273B49",
"~  c #2D414E",
"^  c #3C4346",
"/  c #284255",
"(  c #24455C",
")  c #354653",
"_  c #274C66",
"`  c #2D516B",
"'  c #2D5877",
"]  c #474A4C",
"[  c #484848",
"{  c #5B4D45",
"}  c #4B5459",
"|  c #525354",
" . c #5A5C5D",
".. c #654D45",
"X. c #695549",
"o. c #735C4E",
"O. c #7B5B4D",
"+. c #675D59",
"@. c #755F50",
"#. c #7B6456",
"$. c #78665B",
"%. c #485C6A",
"&. c #5A5F61",
"*. c #596268",
"=. c #6A6A6A",
"-. c #736C67",
";. c #6C7274",
":. c #747575",
">. c #73797D",
",. c #7B7A7A",
"<. c #863B2D",
"1. c #8C3F30",
"2. c #80482C",
"3. c #954233",
"4. c #A94B3A",
"5. c #B14E3C",
"6. c #B5513E",
"7. c #BC533F",
"8. c #BA5340",
"9. c #806758",
"0. c #836B5C",
"q. c #8D6F5E",
"w. c #8E7464",
"e. c #887569",
"r. c #917664",
"t. c #937B6C",
"y. c #997D6C",
"u. c #867A72",
"i. c #807E7C",
"p. c #947E70",
"a. c #B57F69",
"s. c #C95944",
"d. c #D05D47",
"f. c #D7614A",
"g. c #DD634C",
"h. c #E3664E",
"j. c #E66750",
"k. c #9E816F",
"l. c #85817E",
"z. c #998172",
"x. c #A38672",
"c. c #A98A76",
"v. c #AB8D79",
"b. c #B3937E",
"n. c #CA927A",
"m. c #35678B",
"M. c #3B739A",
"N. c #3C79A3",
"B. c #4B83AA",
"V. c #759AB3",
"C. c #7AA1BC",
"Z. c #79A3C0",
"A. c #848383",
"S. c #8D8D8E",
"D. c #929292",
"F. c #979A9B",
"G. c #9A9B9B",
"H. c #B89680",
"J. c #BC9B85",
"K. c #98A0A5",
"L. c #A7A7A7",
"P. c #BDBCBB",
"I. c #C19E87",
"U. c #C29F88",
"Y. c #DD9E92",
"T. c #C5A28A",
"R. c #C9A48C",
"E. c #CEA891",
"W. c #D4AD94",
"Q. c #D8B197",
"!. c #DCB49A",
"~. c #E2B99E",
"^. c #E8BA9E",
"/. c #E6BDA1",
"(. c #EDC2A7",
"). c #F1C5A7",
"_. c #F2C6AA",
"`. c #F5C9AC",
"'. c #F9CCAF",
"]. c #FDCFB1",
"[. c #FFD3B4",
"{. c #FFD7B8",
"}. c #FFD8B9",
"|. c #83A9C5",
" X c #A9C3D7",
".X c #B3CBDC",
"XX c #C4C3C3",
"oX c #CACBCB",
"OX c #D5D5D5",
"+X c #DCDCDC",
"@X c #ECD2CD",
"#X c #E4E4E4",
"$X c #EDECEC",
"%X c #EDF3F8",
"&X c #F5F6F7",
"*X c #FFFFFF",
/* pixels */
"g g g g g g g g g g g g g g g g g g g g g g g g g g g g g g g g g g g g g g g g g g g g g g g g g g g g g g g g g g g g g g g g ",
"g g g g g g g g g g g g g g g g g g g g g g g g g g g g g +X&X%XF.g g g g g g g g g g g g g g g g g g g g g g g g g g g g g g g ",
"g g g g g g g g g g g g g g g g g g g g g g g @ g g g oX.XZ. X%X*X#Xg g g g g g g g g g g g g g g g g g g g g g g g g g g g g g ",
"g g g g g g g g g g g g g g g g g g g g g g 9 m.R s oX*X|.N.B.|.%X*X#Xg g g g g g g g g g g g g g g g g g g g g g g g g g g g g ",
"g g g g g g g g g g g g g g g g g g g g g g ` m.%.XX*X*X.XB.N.C.F.S.D.:.% 6 6 < g g g g g g g g g g g g g g g g g g g g g g g g ",
"g g g g g g g g g g g g g g g g g g g g g f 7 } oX*X*X*X&X|.V._ R ( < < Y ( ( R $ g g g g g g g g g g g g g g g g g g g g g g g ",
"g g g g g g g g g g g g g g g g g g g g g g * P.*X*X*X*X#XK.) R p r * * T _ ( ( 9 g g g g g g g g g g g g g g g g g g g g g g g ",
"g g g g g g g g g g g g g g g g g g g g g ` ~ +X*X*X*XOX%./ / a C L L C t T ( ( / $ g g g g g g g g g g g g g g g g g g g g g g ",
"g g g g g g g g g g g g g g g g g g g g 6 M.~ OX*X&XOX*.' ~ h C P P P P l 8 ( ( / $ g g g g g g g g g g g g g g g g g g g g g g ",
"g g g g g g g g g g g g g g g g g g g g 7 M.~ +X$X>.) / ] w.c P P L L P K > T ( ( $ g g g g g g g g g g g g g g g g g g g g g g ",
"g g g g g g g g g g g g g g g g g g g g 7 M.~ XXV._ ( z.).R.h P P k j 2.C M ! ( ( $ g g g g g g g g g g g g g g g g g g g g g g ",
"g g g g g g g g g g g g g g g g g g g g 7 M.Y } ' ) z.'.{.E.h K K F I C k 0.D R ( $ g g g g g g g g g g g g g g g g g g g g g g ",
"g g g g g g g g g g g g g g g g g g g g g ( Y ` M.^ !.}.[.`.r.n k #.!.I X.Q.d T 9 g g g g g g g g g g g g g g g g g g g g g g g ",
"g g g g g g g g g g g g g g g g g g g g g T Y ( %.H.(.b.b._.].w.@.R.v.x.(.`.D 9 . g g g g g g g g g g g g g g g g g g g g g g g ",
"g g g g g g g g g g g g g g g g g g g     < t ; b._.z.,.A.z.`.].~.u.l.i.v._.m #     g g g g g g g g g g g g g g g g g g g g g g ",
"g g g g g g g g g g g g g g g g g g h l h : C n y.p.A.| | A.y._.e.l.] &.l.x.b   , z j + g g g g g g g g g g g g g g g g g g g g ",
"g g g g g g g g g g g g g g g g g + k K P K 2.z o.+.G.. O G.#.(.+.S.  r D.0.F z L P z z - g g g g g g g g g g g g g g g g g g g ",
"g g g g g g g g g g g g g g g g g   = V j h C z @.v.i.:.:.i.b.H.$.,.:.,.,.H.M C B z , = = g g g g g g g g g g g g g g g g g g g ",
"g g g g g g g g g g g g g g g g g = n n y.G z z @.].v.=.-.v.^.n.o.t.-.-.T.`.G C B j j   g g g g g g g g g g g g g g g g g g g g ",
"g g g g g g g g g g g g g g g g g - j k.T.n K z @.[.].Q.Q.!.q.a.#.~.W.!.[.`.b l j 0.> g g g g g g g g g g g g g g g g g g g g g ",
"g g g g g g g g g g g g g g g g f = = b.!.I C z @.[.[.[.[.].U.9.!.[.[.[.[._.G F I b.> h g g g g g g g g g g g g g g g g g g g g ",
"g g g g g g g g g g g g g g g g g g g X.!.T.b M R.[.].[.x.X.x.`.[.[.[.].[.`...b.U.q.g g g g g g g g g g g g g g g g g g g g g g ",
"g g g g g g g g g g g g g g g g g g g g r , , k.[.].].[.!.E.x.I.[.].].[.[.!.b u g g g g g g g g g g g g g g g g g g g g g g g g ",
"g g g g g g g g g g g g g g g g g g g g g , C F `.[.[.].[.{.].'.[.[.].[.[.#.z j g g g g g g g g g g g g g g g g g g g g g g g g ",
"g g g g g g g g g g g g g g g g g g g g g : K n x.'.[.[.[.[.].[.[.].[.[.U.n Z k g g g g g g g g g g g g g g g g g g g g g g g g ",
"g g g g g g g g g g g g g g g g g g g g g g l K n x.~.[.[.].[.].[.[./.H.I Z B = g g g g g g g g g g g g g g g g g g g g g g g g ",
"g g g g g g g g g g g g g g g g g g g g g g g j j w s y.c._.[.].H.x.{ q h k - g g g g g g g g g g g g g g g g g g g g g g g g g ",
"g g g g g g g g g g g g g g g g g g g g g g g 1 3 p E % { 9.#.$.o.% 0 Y 3 3 @ g g g g g g g g g g g g g g g g g g g g g g g g g ",
"g g g g g g g g g g g g g g g g g g g g g g 3 W Q W Q 3 k.E.J.U.U.5 W W W Q 8 X g g g g g g g g g g g g g g g g g g g g g g g g ",
"g g g g g g g g g g g g g g g g g g g g g g 8 W W W W 3 x.}.[.[.W.e W W W W p X g g g g g g g g g g g g g g g g g g g g g g g g ",
"g g g g g g g g g g g g g g g g g g g g g g 6 W W W W 3 { ~.'._.9.1 W W Q W 0 X g g g g g g g g g g g g g g g g g g g g g g g g ",
"g g g g g g g g g g g g g g g g g g g g g g ; ; e W Q 3 N U I I A & W W p ; 2 g g g g g g g g g g g g g g g g g g g g g g g g g ",
"g g g g g g g g g g g g g g g g g g g g g g 1.s.A 8 Q 3 N 3.8.s.5.; W 0 x s.4.+ g g g g g g g g g g g g g g g g g g g g g g g g ",
"g g g g g g g g g g g g g g g g g g g g g h 8.j.S 8 Q 3 h <.g.j.8.2 W 0 x h.s.N g g g g g g g g g g g g g g g g g g g g g g g g ",
"g g g g g g g g g g g g g g g g g g g g g V h.h.S 3 Q 3 1.h.g.h.5.* W 0 j g.j.1.g g g g g g g g g g g g g g g g g g g g g g g g ",
"g g g g g g g g g g g g g g g g g g g g g g 5.g.S 3 Q 3 1.h.g.h.8.2 W 0 v g.7.A g g g g g g g g g g g g g g g g g g g g g g g g ",
"g g g g g g g g g g g g g g g g g g g g g u O.S c 0 Q 3 <.h.g.h.8.2 W E y S O.m g g g g g g g g g g g g g g g g g g g g g g g g ",
"g g g g g g g g g g g g g g g g g g g g g $.].w.1 W Q 3 3.h.g.h.5.2 W Q 4 .._.v.g g g g g g g g g g g g g g g g g g g g g g g g ",
"g g g g g g g g g g g g g g g g g g g g g #.{.U.4 W Q 3 1.g.g.h.8.2 W Q 6 r.{.v.g g g g g g g g g g g g g g g g g g g g g g g g ",
"g g g g g g g g g g g g g g g g g g g g g #.{.U.2 Q Q 3 3.h.g.h.5.2 W Q 6 w.{.v.g g g g g g g g g g g g g g g g g g g g g g g g ",
"g g g g g g g g g g g g g g g g g g g g g #.{.U.5 Q Q 3 1.h.g.h.5.& W Q 6 w.}.v.g g g g g g g g g g g g g g g g g g g g g g g g ",
"g g g g g g g g g g g g g g g g g g g g g #.{.U.2 W Q 3 1.h.g.h.7.2 W Q 6 r.}.v.g g g g g g g g g g g g g g g g g g g g g g g g ",
"g g g g g g g g g g g g g g g g g g g g g #.{.I.4 W Q 3 1.h.g.g.<.& W Q 6 w.}.v.g g g g g g g g g g g g g g g g g g g g g g g g ",
"g g g g g g g g g g g g g g g g g g g g g #.[.I.4 W W 4 3.h.g.3.N ; W Q 6 w.}.v.g g g g g g g g g g g g g g g g g g g g g g g g ",
"g g g g g g g g g g g g g g g g g g g g g #.{.J.4 W 0 c s.h.4.<.d.A 8 Q 3 w.}.v.g g g g g g g g g g g g g g g g g g g g g g g g ",
"g g g g g g g g g g g g g g g g g g g g g #.{.U.4 Q 8 N h.h.f.f.j.1.4 Q 3 w.[.v.g g g g g g g g g g g g g g g g g g g g g g g g ",
"g g g g g g g g g g g g g g g g g g g g g #.{.U.% 1 4 b 6.f.g.g.s.n p 1 @ r.@Xv.g g g g g g g g g g g g g g g g g g g g g g g g ",
"g g g g g g g g g g g g g g g g g g g g g #.{.J.O   ] =.m c c c c &.&.@   r.[.v.g g g g g g g g g g g g g g g g g g g g g g g g ",
"g g g g g g g g g g g g g g g g g g g g g #.{.J.O o *.:.} ^ ^ ^ ] ;.=.* g r.{.v.g g g g g g g g g g g g g g g g g g g g g g g g ",
"g g g g g g g g g g g g g g g g g g g g g #.[.J.O o &.;.] o   . s ;.;.5 g w.[.v.g g g g g g g g g g g g g g g g g g g g g g g g ",
"g g g g g g g g g g g g g g g g g g g g g $.'.J   o | *.&.* g X } *.*.* g u !.b.g g g g g g g g g g g g g g g g g g g g g g g g ",
"g g g g g g g g g g g g g g g g g g g g g X.b.; g g > D w g g g * D w g g g y.w.g g g g g g g g g g g g g g g g g g g g g g g g ",
"g g g g g g g g g g g g g g g g g g g g g g O g g g i ^...h g g u !.o.h g g g g g g g g g g g g g g g g g g g g g g g g g g g g ",
"g g g g g g g g g g g g g g g g g g g g g g g g g g m `.X.g g g i ).o.g g g g g g g g g g g g g g g g g g g g g g g g g g g g g ",
"g g g g g g g g g g g g g g g g g g g g g g g g g g t H.G g g g > b.H g g g g g g g g g g g g g g g g g g g g g g g g g g g g g ",
"g g g g g g g g g g g g g g g g g g g g g g g g g g * =.r g g g * =.a g g g g g g g g g g g g g g g g g g g g g g g g g g g g g ",
"g g g g g g g g g g g g g g g g g g g g g g g g g g x W.I g g g u Y...g g g g g g g g g g g g g g g g g g g g g g g g g g g g g ",
"g g g g g g g g g g g g g g g g g g g g g g g g g X s @X+.g g g i @X+.  O g g g g g g g g g g g g g g g g g g g g g g g g g g g ",
"g g g g g g g g g g g g g g g g g g g g g g g g % e s G.^ g g g q G.| q * g g g g g g g g g g g g g g g g g g g g g g g g g g g ",
"g g g g g g g g g g g g g g g g g g g g g g g g   % r ; o g g g X * r *     g g g g g g g g g g g g g g g g g g g g g g g g g g ",
"g g g g g g g g g g g g g g g g g g g g g g o ; e r [  .q g g g % | | [ r q o X g g g g g g g g g g g g g g g g g g g g g g g g ",
"g g g g g g g g g g g g g g g g g g g g * r s =.,.A.oXG.[ g g g a D.oX+XA.:.[ r 2 g g g g g g g g g g g g g g g g g g g g g g g ",
"g g g g g g g g g g g g g g g g g g g % A.F.K.$XXX,.-.g g g g g g g g i.L.$XL.F.D.r g g g g g g g g g g g g g g g g g g g g g g ",
"g g g g g g g g g g g g g g g g g g g g g g g g g g g g g g g g g g g g g g g g g g g g g g g g g g g g g g g g g g g g g g g g "
};
