/* XPM */
static char *e535dcf5973c442aa7cc5dc1aedbb58cah7MAeknQF3kpKLN[] = {
/* columns rows colors chars-per-pixel */
"64 64 53 1 ",
"  c #14152E",
". c #2B1629",
"X c #221F34",
"o c #39212C",
"O c #292035",
"+ c #2F2336",
"@ c #362837",
"# c #3C2539",
"$ c #501A1A",
"% c #592E2C",
"& c #412E37",
"* c #45273B",
"= c #4B2B3B",
"- c #45343C",
"; c #4C383D",
": c #53303A",
"> c #5A343B",
", c #533D3F",
"< c #63393C",
"1 c #693F3E",
"2 c #71413B",
"3 c #75443C",
"4 c #7B453C",
"5 c #7E483D",
"6 c #564041",
"7 c #5D4443",
"8 c #474250",
"9 c #5A525C",
"0 c #634845",
"q c #6C4B47",
"w c #765249",
"e c #7D5749",
"r c #834A3E",
"t c #874E40",
"y c #8A5343",
"u c #8D5947",
"i c #8D604C",
"p c #99604A",
"a c #966653",
"s c #9E6950",
"d c #A96D4E",
"f c #A56F53",
"g c #AA735A",
"h c #AC745B",
"j c #B17450",
"k c #BA7B53",
"l c #BD7D54",
"z c #B0765C",
"x c #B3785D",
"c c #B77B5E",
"v c #C28156",
"b c #C58357",
"n c #CF8959",
/* pixels */
"$$$$$$$$$$$$$$$$$$$$$$$$$$$$$$$$$$$$$$$$$$$$$$$$$$$$$$$$$$$$$$$$",
"$$$$$$$$$$$$$$$$$$$$$$$$$$$$$$$$$$$$$$$$$$$$$$$$$$$$$$$$$$$$$$$$",
"$$$$$$$$$$$$$$$$$$$$$$$$$$$$$$$$$$$$$$$$$$$$$$$$$$$$$$$$$$$$$$$$",
"$$$$$$$$$$$$$$$$$$$$$$$$$$$$$$$$$$$$$$$$$$$$$$$$$$$$$$$$$$$$$$$$",
"$$$$$$$$$$$$$$$$$$$$$$$$$$$$$$&;-&$$$$$$$$$$$$$$$$$$$$$$$$$$$$$$",
"$$$$$$$$$$$$$$$$$$$$$$$$$$$$8&nvvn&8$$$$$$$$$$$$$$$$$$$$$$$$$$$$",
"$$$$$$$$$$$$$$$$$$$$$$$$$$$:i7vkkv7i:$$$$$$$$$$$$$$$$$$$$$$$$$$$",
"$$$$$$$$$$$$$$$$$$$$$$$$$7qba,vkkv,abq+$$$$$$$$$$$$$$$$$$$$$$$$$",
"$$$$$$$$$$$$$$$$$$$$$$$$<hcha,vkkv,azz-1$$$$$$$$$$$$$$$$$$$$$$$$",
"$$$$$$$$$$$$$$$$$$$$$$quvggxa,vkkv,axf5npq$$$$$$$$$$$$$$$$$$$$$$",
"$$$$$$$$$$$$$$$$$$$$9wxcghhza,vkkv,axgukbvy$$$$$$$$$$$$$$$$$$$$$",
"$$$$$$$$$$$$$$$$$$$eacftszgxa,vkkv,axgykkkndu$$$$$$$$$$$$$$$$$$$",
"$$$$$$$$$$$$$$$$$0izcuysfzhg-;bkkb;-zf6kllkvvsw$$$$$$$$$$$$$$$$$",
"$$$$$$$$$$$$$$$-ifcghffzzge&w6vkkv,e3w,llklkkbjs$$$$$$$$$$$$$$$$",
"$$$$$$$$$$$$$-qfzzghghcfa&6ha6vkkv,ixq<fkbkllkllkw$$$$$$$$$$$$$$",
"$$$$$$$$$$$$;pucghhgzxaw->fca,vkkv,5fgs>efvlkllkvlj&$$$$$$$$$$$$",
"$$$$$$$$$$Oubdpzhggcfe,pl1fxa,vkkv6iyszxq;dkvkklkllbiO$$$$$$$$$$",
"$$$$$$$$$$7bvuexgzce0;jvk1fxa,vkkv,axhhhzhypdvvklllkb7$$$$$$$$$$",
"$$$$$$$$$$7js10xcaq,unklk1fzs6vkkv6szghhhgxpuusnkklkv6$$$$$$$$$$",
"$$$$$$$$$$7dpuqv070lbkllk1gv0;bkkb;0vzghhhgzzw0wvbkkb6$$$$$$$$$$",
"$$$$$$$$$$6bna@07ankklllk7i66,vkkv,66acghhhhgv0;7inkv7$$$$$$$$$$",
"$$$$$$$$$$6bl--evvklllklv&,es6vkkv6se67xhghhgc7ii76ln6$$$$$$$$$$",
"$$$$$$$$$$0p<ejnkkllllbdyuanf,vkkv,fnaeyscghgc7infe;u0$$$$$$$$$$",
"$$$$$$$$$$@tsbvklllllk7udvvlt,vkkv,flvvj0;hzgcqpvvbaq+$$$$$$$$$$",
"$$$$$$$$$$;kbdtjlllvu&ikvldyi6vkkv,fvkkvfitagcqpbkkbk;$$$$$$$$$$",
"$$$$$$$$$$7bkkjuplj-0fllklkjf6vkkv,fvklkbjuq&gqpvkljy;$$$$$$$$$$",
"$$$$$$$$$$7vklvkjw@skvlllllbf,vkkv,fvkllljuga-#pblkkk6$$$$$$$$$$",
"$$$$$$$$$$7vkvja&w,fbkllllkvf,vkkv,svkllljuxhgw>sjbkb6$$$$$$$$$$",
"$$$$$$$$$$6bljq&fx,fvkllllkvf6vkkb,tvlllvjyzghzf<wslb6$$$$$$$$$$",
"$$$$$$$$$$7kstaxhz7fvkllllkvf;lbbl;fvklkvd1xghhgcq@ej0$$$$$$$$$$",
"$$$$$$$$$$,pyzhghzujvvlllklbx@tppt@sblkkvd1xghhgc0e77;$$$$$$$$$$",
"$$$$$$$$$$-dxghhhzykjpklkvkdwO+OO+X<dkvkvd1xghhgc0wbi@$$$$$$$$$$",
"$$$$$$$$$$6cghhhhzyuppklvdy&++O++O+@&ydlvd1xghhzz,exc7$$$$$$$$$$",
"$$$$$$$$$$6xghhhhzuudbvjp>@X#=+##+=#X@>pkf6xghhpp,exz,$$$$$$$$$$",
"$$$$$$$$$$6xghhhhz0jbls3@+#+#*+##+*#+#+@5y,cghhpfqecz,$$$$$$$$$$",
"$$$$$$$$$$6xhhhhgz;fjy&+#*=+#*+##+=#+=*+@+&dzghzc0ecz6$$$$$$$$$$",
"$$$$$$$$$$6xghhhgx;r1OXX+OOXOOXOOXOOXOO+XXX1ughgc0ecz6$$$$$$$$$$",
"$$$$$$$$$$6xyuzgzp@O@######################+@5phc0ecz6$$$$$$$$$$",
"$$$$$$$$$$-tsghft>X#**********<44<**********#O>rz0exz6$$$$$$$$$$",
"$$$$$$$$$$,hhzu1++*********=:455554:=*********+O3&ecz6$$$$$$$$$$",
"$$$$$$$$$$6xs3&XO##########>21111111>##########OOX>sz6$$$$$$$$$$",
"$$$$$$$$$$7u>O#*XOOOOOOXXXXXXOOXOOXOO+++++++OOOX*#O>u6$$$$$$$$$$",
"$$$$$$$$$$$$O**#+****==>>>>>>==:::::#OOOOOOO***+#**OoO$$$$$$$$$$",
"$$$$$$$$$$$$o**#+***#O+:::::51<trrr>@7777776@**+#**o$$$$$$$$$$$$",
"$$$$$$$$$$$$.=*#+**#-qq00007<<:<>>>@iawwwwwfw+*O#*=.$$$$$$$$$$$$",
"$$$$$$$$$$$$.=**+#>=0aqqqqqa;>:>><#-sO     -s+:@:#=.$$$$$$$$$$$$",
"$$$$$$$$$$$$.=*#O:5<0,   X q,><r5r=-q OXXXXXe@<&1<:.$$$$$$$$$$$$",
"$$$$$$$$$$$$.*><O<t>q7 OXO w6><r4r=;e XXXXXXi@<&2r2.$$$$$$$$$$$$",
"$$$$$$$$$$$$.244+=:#q0 XXX e,#=:::#;e XXXXXXi@=@24r%$$$$$$$$$$$$",
"$$$$$$$$$$$$%r53+:3:q7 XXX e,<2112*;e XXXXXXi@>&25r%$$$$$$$$$$$$",
"$$$$$$$$$$$$%r43O<t<qqX@+@Xe,2rr5r=;e XXXXXXi@<&25r%$$$$$$$$$$$$",
"$$$$$$$$$$$$%r43+>5>7gsssssf-13223*;e XXXXXXi@<&25r%$$$$$$$$$$$$",
"$$$$$$$$$$$$%r43+=:=*@@@@@@@=====:#;e XXXXXXi@<&25r%$$$$$$$$$$$$",
"$$$$$$$$$$$$%r43+>5442:33333444445=;e XXXXXXi@<&25r%$$$$$$$$$$$$",
"$$$$$$$$$$$$%r43O<r5r5>5rrrrrrrr5r=;e XXXXXXi@<&25r%$$$$$$$$$$$$",
"$$$$$$$$$$$$%r43+:<<<<=<<<<<<<<<<<*;e XXXXXXi@:@25r%$$$$$$$$$$$$",
"$$$$$$$$$$$$%r43+=>:::>::::::::::>#;e OOOOOXi@=@24r%$$$$$$$$$$$$",
"$$$$$$$$$$$$%r43+<ytttttttttttttty:;e       i@1-24r%$$$$$$$$$$$$",
"$$$$$$$$$$$$%yr5 .oooooooooooooooo ,e$$$$$$$i@..4ry%$$$$$$$$$$$$",
"$$$$$$$$$$$$;oo&$$$$$$$$$$$$$$$$$$$&.$$$$$$$.8$$$$o;$$$$$$$$$$$$",
"$$$$$$$$$$$$$$$$$$$$$$$$$$$$$$$$$$$$$$$$$$$$$$$$$$$$$$$$$$$$$$$$",
"$$$$$$$$$$$$$$$$$$$$$$$$$$$$$$$$$$$$$$$$$$$$$$$$$$$$$$$$$$$$$$$$",
"$$$$$$$$$$$$$$$$$$$$$$$$$$$$$$$$$$$$$$$$$$$$$$$$$$$$$$$$$$$$$$$$",
"$$$$$$$$$$$$$$$$$$$$$$$$$$$$$$$$$$$$$$$$$$$$$$$$$$$$$$$$$$$$$$$$"
};
